<?xml version="1.0" encoding="UTF-8" standalone="no"?>
<!-- Created with Inkscape (http://www.inkscape.org/) -->

<svg
   xmlns:dc="http://purl.org/dc/elements/1.1/"
   xmlns:cc="http://creativecommons.org/ns#"
   xmlns:rdf="http://www.w3.org/1999/02/22-rdf-syntax-ns#"
   xmlns:svg="http://www.w3.org/2000/svg"
   xmlns="http://www.w3.org/2000/svg"
   xmlns:xlink="http://www.w3.org/1999/xlink"
   xmlns:sodipodi="http://sodipodi.sourceforge.net/DTD/sodipodi-0.dtd"
   xmlns:inkscape="http://www.inkscape.org/namespaces/inkscape"
   width="286.90469"
   height="286.25693"
   id="svg2"
   version="1.1"
   inkscape:version="0.47 r22583"
   sodipodi:docname="cadr.svg"
   inkscape:export-filename="/home/romanov/cadr.png"
   inkscape:export-xdpi="90"
   inkscape:export-ydpi="90">
  <defs
     id="defs4">
    <linearGradient
       inkscape:collect="always"
       id="linearGradient4329">
      <stop
         style="stop-color:#ffffff;stop-opacity:1;"
         offset="0"
         id="stop4331" />
      <stop
         style="stop-color:#ffffff;stop-opacity:0;"
         offset="1"
         id="stop4333" />
    </linearGradient>
    <linearGradient
       inkscape:collect="always"
       id="linearGradient4313">
      <stop
         style="stop-color:#000000;stop-opacity:1;"
         offset="0"
         id="stop4315" />
      <stop
         style="stop-color:#000000;stop-opacity:0;"
         offset="1"
         id="stop4317" />
    </linearGradient>
    <linearGradient
       inkscape:collect="always"
       id="linearGradient4291">
      <stop
         style="stop-color:#aa8800;stop-opacity:1;"
         offset="0"
         id="stop4293" />
      <stop
         style="stop-color:#aa8800;stop-opacity:0;"
         offset="1"
         id="stop4295" />
    </linearGradient>
    <linearGradient
       inkscape:collect="always"
       id="linearGradient4162">
      <stop
         style="stop-color:#668000;stop-opacity:1;"
         offset="0"
         id="stop4164" />
      <stop
         style="stop-color:#668000;stop-opacity:0;"
         offset="1"
         id="stop4166" />
    </linearGradient>
    <linearGradient
       id="linearGradient3737"
       inkscape:collect="always">
      <stop
         id="stop3739"
         offset="0"
         style="stop-color:#ffffff;stop-opacity:1" />
      <stop
         id="stop3741"
         offset="1"
         style="stop-color:#ffffff;stop-opacity:0;" />
    </linearGradient>
    <linearGradient
       id="linearGradient3719"
       inkscape:collect="always">
      <stop
         id="stop3721"
         offset="0"
         style="stop-color:#668000;stop-opacity:1" />
      <stop
         id="stop3723"
         offset="1"
         style="stop-color:#f6ffd5;stop-opacity:1" />
    </linearGradient>
    <linearGradient
       inkscape:collect="always"
       xlink:href="#linearGradient3719"
       id="linearGradient3717"
       gradientUnits="userSpaceOnUse"
       x1="229.87161"
       y1="93.324982"
       x2="467.10629"
       y2="330.05316" />
    <filter
       inkscape:collect="always"
       id="filter3757"
       color-interpolation-filters="sRGB">
      <feGaussianBlur
         inkscape:collect="always"
         stdDeviation="1.3779249"
         id="feGaussianBlur3759" />
    </filter>
    <filter
       inkscape:collect="always"
       id="filter3779"
       color-interpolation-filters="sRGB">
      <feGaussianBlur
         inkscape:collect="always"
         stdDeviation="0.37499988"
         id="feGaussianBlur3781" />
    </filter>
    <linearGradient
       id="linearGradient2847">
      <stop
         style="stop-color:#806600;stop-opacity:1;"
         offset="0"
         id="stop2849" />
      <stop
         id="stop10925"
         offset="0.21818182"
         style="stop-color:#693603;stop-opacity:1;" />
      <stop
         style="stop-color:#530707;stop-opacity:1;"
         offset="1"
         id="stop2851" />
    </linearGradient>
    <linearGradient
       id="linearGradient3754">
      <stop
         style="stop-color:#ffe165;stop-opacity:1;"
         offset="0"
         id="stop3756" />
      <stop
         id="stop11820"
         offset="0.32727271"
         style="stop-color:#f60;stop-opacity:1;" />
      <stop
         style="stop-color:#bf0000;stop-opacity:1;"
         offset="1"
         id="stop3758" />
    </linearGradient>
    <linearGradient
       inkscape:collect="always"
       xlink:href="#linearGradient2847"
       id="linearGradient3339"
       gradientUnits="userSpaceOnUse"
       gradientTransform="matrix(0.07011732,0,0,0.07011732,498.69702,71.5545)"
       x1="1460.7534"
       y1="1418.5093"
       x2="1460.7534"
       y2="352.69614" />
    <linearGradient
       inkscape:collect="always"
       xlink:href="#linearGradient3754"
       id="linearGradient3345"
       gradientUnits="userSpaceOnUse"
       gradientTransform="matrix(0.07011732,0,0,0.07011732,498.69702,71.5545)"
       x1="1417.4907"
       y1="1415.9645"
       x2="1417.4907"
       y2="352.99988" />
    <filter
       inkscape:collect="always"
       id="filter4158"
       x="-0.1047619"
       width="1.2095238"
       y="-0.1047619"
       height="1.2095238"
       color-interpolation-filters="sRGB">
      <feGaussianBlur
         inkscape:collect="always"
         stdDeviation="67.238176"
         id="feGaussianBlur4160" />
    </filter>
    <radialGradient
       inkscape:collect="always"
       xlink:href="#linearGradient4162"
       id="radialGradient4226"
       gradientUnits="userSpaceOnUse"
       cx="1410.802"
       cy="1410.802"
       fx="1410.802"
       fy="1410.802"
       r="785.51605" />
    <linearGradient
       inkscape:collect="always"
       xlink:href="#linearGradient3737"
       id="linearGradient4283"
       gradientUnits="userSpaceOnUse"
       gradientTransform="matrix(1.2817188,0,0,1.2817188,-106.01355,-53.930118)"
       x1="372.78662"
       y1="198.74431"
       x2="375.07352"
       y2="200.93269" />
    <linearGradient
       inkscape:collect="always"
       xlink:href="#linearGradient4291"
       id="linearGradient4297"
       x1="385.15222"
       y1="184.96373"
       x2="477.37103"
       y2="283.36139"
       gradientUnits="userSpaceOnUse" />
    <linearGradient
       inkscape:collect="always"
       xlink:href="#linearGradient4291"
       id="linearGradient4311"
       gradientUnits="userSpaceOnUse"
       x1="385.15222"
       y1="184.96373"
       x2="477.37103"
       y2="283.36139" />
    <linearGradient
       inkscape:collect="always"
       xlink:href="#linearGradient4313"
       id="linearGradient4319"
       x1="236.94196"
       y1="159.99928"
       x2="513.1803"
       y2="159.99928"
       gradientUnits="userSpaceOnUse" />
    <linearGradient
       inkscape:collect="always"
       xlink:href="#linearGradient4329"
       id="linearGradient4335"
       x1="350.07904"
       y1="93.531242"
       x2="516.00873"
       y2="249.09474"
       gradientUnits="userSpaceOnUse" />
  </defs>
  <sodipodi:namedview
     id="base"
     pagecolor="#ffffff"
     bordercolor="#666666"
     borderopacity="1.0"
     inkscape:pageopacity="0.0"
     inkscape:pageshadow="2"
     inkscape:zoom="1"
     inkscape:cx="178.76937"
     inkscape:cy="148.47815"
     inkscape:document-units="px"
     inkscape:current-layer="layer1"
     showgrid="false"
     inkscape:snap-nodes="false"
     showguides="true"
     inkscape:guide-bbox="true"
     inkscape:window-width="1020"
     inkscape:window-height="674"
     inkscape:window-x="-2"
     inkscape:window-y="34"
     inkscape:window-maximized="1" />
  <metadata
     id="metadata7">
    <rdf:RDF>
      <cc:Work
         rdf:about="">
        <dc:format>image/svg+xml</dc:format>
        <dc:type
           rdf:resource="http://purl.org/dc/dcmitype/StillImage" />
        <dc:title></dc:title>
      </cc:Work>
    </rdf:RDF>
  </metadata>
  <g
     inkscape:label="Calque 1"
     inkscape:groupmode="layer"
     id="layer1"
     transform="translate(-231.42641,-59.584259)">
    <rect
       style="opacity:0.75939852;fill:#ffffff;fill-opacity:1;stroke:none"
       id="rect4343"
       width="286.90469"
       height="286.25693"
       x="231.42641"
       y="59.584259"
       rx="6.5477761e-06"
       ry="8.8968296" />
    <path
       transform="matrix(1.0690177,0,0,1.0992159,23.715623,-15.044613)"
       style="fill:url(#linearGradient3717);fill-opacity:1;stroke:#000000;stroke-width:1.03361475;stroke-linecap:round;stroke-linejoin:round;stroke-miterlimit:4;stroke-opacity:1;stroke-dashoffset:0"
       d="m 458.57144,198.79076 c 0,69.82457 -58.20298,126.42857 -130,126.42857 -71.79702,0 -130,-56.604 -130,-126.42857 0,-69.82458 58.20298,-126.428577 130,-126.428577 71.79702,0 130,56.603997 130,126.428577 z"
       id="path3691" />
    <path
       style="fill:#eef4d7;fill-opacity:1;stroke:none"
       d="m 498.99683,203.46935 c 0,68.50127 -55.53125,124.03252 -124.03252,124.03252 -68.50127,0 -124.03252,-55.53125 -124.03252,-124.03252 0,-68.50128 55.53125,-124.032525 124.03252,-124.032525 68.50127,0 124.03252,55.531245 124.03252,124.032525 z"
       id="cadran"
       inkscape:label="#path2857">
      <desc
         id="desc3661">Cadran background</desc>
      <title
         id="title3659">Cadran</title>
    </path>
    <g
       id="g4299"
       transform="matrix(-0.68746453,0.72621796,-0.72621796,-0.68746453,784.76092,299.46986)">
      <desc
         id="desc4347">needle</desc>
      <title
         id="title4345">needle</title>
      <g
         transform="matrix(-0.58732165,-0.80935362,0.80935362,-0.58732165,262.86592,787.89809)"
         id="g3761">
        <path
           inkscape:transform-center-x="-45.923355"
           inkscape:transform-center-y="32.302927"
           inkscape:label="#rect3639"
           id="path3743"
           d="m 473.35816,275.0501 -0.27809,-0.20205 -9.33556,-10.91577 c -9.71511,-10.92603 -11.23865,-6.57896 -12.20079,-6.54679 -0.96214,0.0322 0.0193,-5.00323 -0.96077,-5.6423 -13.25058,-6.87791 -50.27759,-28.89157 -75.81555,-55.19904 l -3.26955,4.50015 -0.0184,0.0253 -0.0184,0.0253 -3.26956,4.50017 c 32.91158,16.15856 65.28979,44.57073 75.92569,55.04742 0.91065,0.73468 5.39636,-1.75481 5.66308,-0.82979 0.26671,0.92498 -3.3968,3.71727 9.99659,9.58057 l 13.26636,5.50547 0.27811,0.20206 -0.0576,-0.0803 0.0942,0.0297 z"
           style="fill:#333333;fill-opacity:1;stroke:#000000;filter:url(#filter3757)">
          <desc
             id="desc3745">needle of direction</desc>
          <title
             id="title3747">needle</title>
        </path>
        <path
           style="fill:#f5dd7a;fill-opacity:1;stroke:#000000"
           d="m 473.35816,275.0501 -0.27809,-0.20205 -9.33556,-10.91577 c -9.71511,-10.92603 -11.23865,-6.57896 -12.20079,-6.54679 -0.96214,0.0322 0.0193,-5.00323 -0.96077,-5.6423 -13.25058,-6.87791 -50.27759,-28.89157 -75.81555,-55.19904 l -3.26955,4.50015 -0.0184,0.0253 -0.0184,0.0253 -3.26956,4.50017 c 32.91158,16.15856 65.28979,44.57073 75.92569,55.04742 0.91065,0.73468 5.39636,-1.75481 5.66308,-0.82979 0.26671,0.92498 -3.3968,3.71727 9.99659,9.58057 l 13.26636,5.50547 0.27811,0.20206 -0.0576,-0.0803 0.0942,0.0297 z"
           id="needle"
           inkscape:label="#rect3639"
           inkscape:transform-center-y="32.302927"
           inkscape:transform-center-x="-45.923355">
          <desc
             id="desc3656">needle of direction</desc>
          <title
             id="title3654">needle</title>
        </path>
        <path
           sodipodi:nodetypes="cccscccccccccccc"
           inkscape:transform-center-x="-45.923355"
           inkscape:transform-center-y="32.302927"
           inkscape:label="#rect3639"
           id="path4285"
           d="m 473.36376,275.04239 -0.28369,-0.19434 -9.33556,-10.91577 c -9.71511,-10.92603 -11.23865,-6.57896 -12.20079,-6.54679 -0.96214,0.0322 0.0193,-5.00323 -0.96077,-5.6423 -13.25058,-6.87791 -50.27759,-28.89157 -75.81555,-55.19904 l -3.26955,4.50015 -0.0184,0.0253 -0.0184,0.0253 79.21481,57.48362 11.10244,8.05667 11.26491,8.26355 0.27811,0.20206 -0.0576,-0.0803 0.0942,0.0297 0.006,-0.008 z"
           style="fill:url(#linearGradient4311);fill-opacity:1;stroke:none">
          <desc
             id="desc4287">needle of direction</desc>
          <title
             id="title4289">needle</title>
        </path>
      </g>
    </g>
    <path
       sodipodi:type="arc"
       style="fill:#f4eed7;fill-opacity:1;stroke:#2b1100;stroke-width:2;stroke-linecap:round;stroke-linejoin:round;stroke-miterlimit:4;stroke-opacity:1;stroke-dasharray:none;stroke-dashoffset:0"
       id="path2870"
       sodipodi:cx="187.3833"
       sodipodi:cy="134.89113"
       sodipodi:rx="48.08326"
       sodipodi:ry="49.851028"
       d="m 235.46656,134.89113 c 0,27.53196 -21.52761,49.85103 -48.08326,49.85103 -26.55565,0 -48.08326,-22.31907 -48.08326,-49.85103 0,-27.53196 21.52761,-49.85103 48.08326,-49.85103 26.55565,0 48.08326,22.31907 48.08326,49.85103 z"
       transform="translate(190.56761,67.487775)" />
    <g
       id="g4228"
       transform="matrix(0.57634379,0,0,0.57634379,6.5256299,101.72129)">
      <path
         id="path2013"
         d="m 2180.9847,1410.802 c 0,425.3602 -344.8225,770.1827 -770.1827,770.1827 -425.36018,0 -770.18274,-344.8225 -770.18274,-770.1827 0,-425.36018 344.82256,-770.18274 770.18274,-770.18274 425.3602,0 770.1827,344.82256 770.1827,770.18274 z"
         style="opacity:0.71370963;fill:url(#radialGradient4226);fill-opacity:1;fill-rule:nonzero;stroke:none;filter:url(#filter4158)"
         transform="matrix(0.09501879,0,0,0.09501879,510.39821,40.595867)" />
      <g
         transform="translate(46.327533,3.6677288)"
         id="g4170">
        <g
           style="fill-rule:evenodd"
           id="additional16"
           transform="matrix(0.07011732,0,0,0.07011732,598.12337,170.9808)">
          <path
             id="line3022"
             d="M 0,-780 0,780"
             style="stroke:#000000;stroke-width:4"
             transform="matrix(0.98078528,0.19509032,-0.19509032,0.98078528,0,0)" />
          <path
             id="line3024"
             d="M 0,-780 0,780"
             style="stroke:#000000;stroke-width:4"
             transform="matrix(0.83146961,0.55557023,-0.55557023,0.83146961,0,0)" />
          <path
             id="line3026"
             d="M 0,-780 0,780"
             style="stroke:#000000;stroke-width:4"
             transform="matrix(0.55557023,0.83146961,-0.83146961,0.55557023,0,0)" />
          <path
             id="line3028"
             d="M 0,-780 0,780"
             style="stroke:#000000;stroke-width:4"
             transform="matrix(0.19509032,0.98078528,-0.98078528,0.19509032,0,0)" />
          <path
             id="line3030"
             d="M 0,-780 0,780"
             style="stroke:#000000;stroke-width:4"
             transform="matrix(-0.19509032,0.98078528,-0.98078528,-0.19509032,0,0)" />
          <path
             id="line3032"
             d="M 0,-780 0,780"
             style="stroke:#000000;stroke-width:4"
             transform="matrix(-0.55557023,0.83146961,-0.83146961,-0.55557023,0,0)" />
          <path
             id="line3034"
             d="M 0,-780 0,780"
             style="stroke:#000000;stroke-width:4"
             transform="matrix(-0.83146961,0.55557023,-0.55557023,-0.83146961,0,0)" />
          <path
             id="line3036"
             d="M 0,-780 0,780"
             style="stroke:#000000;stroke-width:4"
             transform="matrix(-0.98078528,0.19509032,-0.19509032,-0.98078528,0,0)" />
        </g>
        <g
           transform="matrix(0.07011732,0,0,0.07011732,498.69701,71.5545)"
           style="fill-rule:evenodd"
           id="g32">
          <path
             style="fill:#ffdd55;stroke:#1f1a17;stroke-width:4;stroke-linejoin:round"
             id="path34"
             d="m 1102,654 361,656 -45,108 -108,-45 -208,-719 z"
             class="fil0 str0" />
          <path
             style="fill:#ffdd55;stroke:#1f1a17;stroke-width:4;stroke-linejoin:round"
             id="path36"
             d="m 1734,2182 -208,-719 -108,-45 -45,108 361,656 z"
             class="fil0 str0" />
          <path
             style="fill:#ffdd55;stroke:#1f1a17;stroke-width:4;stroke-linejoin:round"
             id="path38"
             d="m 654,1734 656,-361 108,45 -45,108 -719,208 z"
             class="fil0 str0" />
          <path
             style="fill:#ffdd55;stroke:#1f1a17;stroke-width:4;stroke-linejoin:round"
             id="path40"
             d="m 2182,1102 -719,208 -45,108 108,45 656,-361 z"
             class="fil0 str0" />
          <path
             style="fill:#aa8800;stroke:#1f1a17;stroke-width:4;stroke-linejoin:round"
             id="path42"
             d="m 1418,1418 316,764 -208,-719 -108,-45 z"
             class="fil1 str0" />
          <path
             style="fill:#aa8800;stroke:#1f1a17;stroke-width:4;stroke-linejoin:round"
             id="path44"
             d="m 1418,1418 764,-316 -656,361 -108,-45 z"
             class="fil1 str0" />
          <path
             style="fill:#aa8800;stroke:#1f1a17;stroke-width:4;stroke-linejoin:round"
             id="path48"
             d="m 1418,1418 -316,-764 361,656 -45,108 z"
             class="fil1 str0" />
          <path
             style="fill:#aa8800;stroke:#1f1a17;stroke-width:4;stroke-linejoin:round"
             id="path50"
             d="m 1418,1418 -764,316 719,-208 45,-108 z"
             class="fil1 str0" />
        </g>
        <g
           transform="matrix(0.07011732,0,0,0.07011732,498.69701,71.5545)"
           style="fill-rule:evenodd"
           id="g52">
          <path
             style="fill:#ffdd55;stroke:#1f1a17;stroke-width:4;stroke-linejoin:round"
             id="path54"
             d="m 654,1102 719,208 45,108 -108,45 -656,-361 z"
             class="fil0 str0" />
          <path
             style="fill:#ffdd55;stroke:#1f1a17;stroke-width:4;stroke-linejoin:round"
             id="path56"
             d="m 2182,1734 -656,-361 -108,45 45,108 719,208 z"
             class="fil0 str0" />
          <path
             style="fill:#ffdd55;stroke:#1f1a17;stroke-width:4;stroke-linejoin:round"
             id="path58"
             d="m 1102,2182 208,-719 108,-45 45,108 -361,656 z"
             class="fil0 str0" />
          <path
             style="fill:#ffdd55;stroke:#1f1a17;stroke-width:4;stroke-linejoin:round"
             id="path60"
             d="m 1734,654 -361,656 45,108 108,-45 208,-719 z"
             class="fil0 str0" />
          <path
             style="fill:#aa8800;stroke:#1f1a17;stroke-width:4;stroke-linejoin:round"
             id="path62"
             d="m 1418,1418 764,316 -656,-361 -108,45 z"
             class="fil1 str0" />
          <path
             style="fill:#aa8800;stroke:#1f1a17;stroke-width:4;stroke-linejoin:round"
             id="path64"
             d="m 1418,1418 316,-764 -208,719 -108,45 z"
             class="fil1 str0" />
          <path
             style="fill:#aa8800;stroke:#1f1a17;stroke-width:4;stroke-linejoin:round"
             id="path68"
             d="m 1418,1418 -764,-316 719,208 45,108 z"
             class="fil1 str0" />
          <path
             style="fill:#aa8800;stroke:#1f1a17;stroke-width:4;stroke-linejoin:round"
             id="path70"
             d="m 1418,1418 -316,764 361,-656 -45,-108 z"
             class="fil1 str0" />
        </g>
        <g
           transform="matrix(0.07011732,0,0,0.07011732,498.69701,71.5545)"
           style="fill-rule:evenodd"
           id="g72">
          <path
             style="fill:#ffdd55;stroke:#1f1a17;stroke-width:4;stroke-linejoin:round"
             id="path74"
             d="m 2086,750 -534,668 -134,0 0,-134 668,-534 z"
             class="fil0 str0" />
          <path
             style="fill:#ffdd55;stroke:#1f1a17;stroke-width:4;stroke-linejoin:round"
             id="path76"
             d="m 750,2086 668,-534 0,-134 -134,0 -534,668 z"
             class="fil0 str0" />
          <path
             style="fill:#ffdd55;stroke:#1f1a17;stroke-width:4;stroke-linejoin:round"
             id="path78"
             d="m 750,750 668,534 0,134 -134,0 -534,-668 z"
             class="fil0 str0" />
          <path
             style="fill:#ffdd55;stroke:#1f1a17;stroke-width:4;stroke-linejoin:round"
             id="path80"
             d="m 2086,2086 -534,-668 -134,0 0,134 668,534 z"
             class="fil0 str0" />
          <path
             style="fill:#806600;stroke:#1f1a17;stroke-width:4;stroke-linejoin:round"
             id="path82"
             d="m 1418,1418 -668,668 668,-534 0,-134 z"
             class="fil1 str0" />
          <path
             style="fill:#aa8800;stroke:#1f1a17;stroke-width:4;stroke-linejoin:round"
             id="path84"
             d="m 1418,1418 668,668 -668,-534 0,-134 z"
             class="fil1 str0" />
          <path
             style="fill:#806600;stroke:#1f1a17;stroke-width:4;stroke-linejoin:round"
             id="path86"
             d="m 1418,1418 668,-668 -534,668 -134,0 z"
             class="fil1 str0" />
          <path
             style="fill:#aa8800;stroke:#1f1a17;stroke-width:4;stroke-linejoin:round"
             id="path88"
             d="m 1418,1418 -668,-668 534,668 134,0 z"
             class="fil1 str0" />
        </g>
        <path
           style="fill:url(#linearGradient3345);fill-opacity:1;fill-rule:evenodd;stroke:#1f1a17;stroke-width:0.28046927;stroke-linejoin:round"
           id="path92"
           d="m 598.12337,96.4461 7.43244,67.1023 -7.43244,7.4324 -7.43244,-7.4324 7.43244,-67.1023 z"
           class="fil0 str0" />
        <path
           style="fill:#f5ff5d;fill-opacity:1;fill-rule:evenodd;stroke:#1f1a17;stroke-width:0.28046927;stroke-linejoin:round"
           id="path96"
           d="m 523.58866,170.9808 67.10227,-7.4324 7.43244,7.4324 -7.43244,7.4325 -67.10227,-7.4325 z"
           class="fil0 str0" />
        <path
           style="fill:#ffdd55;fill-rule:evenodd;stroke:#1f1a17;stroke-width:0.28046927;stroke-linejoin:round"
           id="path98"
           d="m 672.65808,170.9808 -67.10227,-7.4324 -7.43244,7.4324 7.43244,7.4325 67.10227,-7.4325 z"
           class="fil0 str0" />
        <path
           style="fill:#806600;fill-rule:evenodd;stroke:#1f1a17;stroke-width:0.28046927;stroke-linejoin:round"
           id="path102"
           d="m 598.12337,170.9808 74.53471,0 -67.10227,7.4325 -7.43244,-7.4325 z"
           class="fil1 str0" />
        <path
           style="fill:url(#linearGradient3339);fill-opacity:1;fill-rule:evenodd;stroke:#1f1a17;stroke-width:0.28046927;stroke-linejoin:round"
           id="path106"
           d="m 598.12337,170.9808 0,-74.5347 7.43244,67.1023 -7.43244,7.4324 z"
           class="fil1 str0" />
        <path
           style="fill:#806600;fill-rule:evenodd;stroke:#1f1a17;stroke-width:0.28046927;stroke-linejoin:round"
           id="path108"
           d="m 598.12337,170.9808 -74.53471,0 67.10227,7.4325 7.43244,-7.4325 z"
           class="fil1 str0" />
        <g
           transform="matrix(0.07011732,0,0,0.07011732,498.69701,71.5545)"
           style="fill-rule:evenodd"
           id="g142">
          <path
             style="fill:#786721;fill-opacity:1;stroke:#1f1a17;stroke-width:4;stroke-linejoin:round"
             id="path144"
             d="m 1418,2481 0,-1063 106,106 -106,957 z"
             class="fil4 str0" />
          <path
             style="fill:#ffdd55;fill-opacity:1;stroke:#1f1a17;stroke-width:4;stroke-linejoin:round"
             id="path146"
             d="m 1418,1418 0,1063 -106,-957 106,-106 z"
             class="fil5 str0" />
        </g>
      </g>
    </g>
    <path
       id="path3631"
       d="m 498.99683,203.46935 c 0,68.50127 -55.53125,124.03252 -124.03252,124.03252 -68.50127,0 -124.03252,-55.53125 -124.03252,-124.03252 0,-68.50128 55.53125,-124.032525 124.03252,-124.032525 68.50127,0 124.03252,55.531245 124.03252,124.032525 z"
       style="fill:none;stroke:#000000;stroke-width:0.99999994;stroke-linecap:round;stroke-linejoin:round;stroke-miterlimit:4;stroke-opacity:1;stroke-dashoffset:0" />
    <g
       id="g4277"
       transform="translate(3.1128796,-0.96416889)">
      <path
         transform="matrix(1.1413459,0,0,1.1413459,-53.125955,-28.885836)"
         style="fill:#666666;fill-opacity:1;stroke:none;filter:url(#filter3779)"
         d="m 382.46431,203.46935 c 0,4.14213 -3.35786,7.5 -7.5,7.5 -4.14213,0 -7.49999,-3.35787 -7.49999,-7.5 0,-4.14213 3.35786,-7.5 7.49999,-7.5 4.14214,0 7.5,3.35787 7.5,7.5 z"
         id="path3769" />
      <path
         id="path3635"
         d="m 382.33802,203.34307 c 0,4.14213 -3.35786,7.5 -7.5,7.5 -4.14213,0 -7.49999,-3.35787 -7.49999,-7.5 0,-4.14213 3.35786,-7.5 7.49999,-7.5 4.14214,0 7.5,3.35787 7.5,7.5 z"
         style="fill:#ffe680;fill-opacity:1;stroke:#2b2200;stroke-width:1;stroke-miterlimit:4" />
      <path
         id="path3637"
         d="m 378.54996,203.34307 c 0,2.05004 -1.66189,3.71193 -3.71193,3.71193 -2.05004,0 -3.71193,-1.66189 -3.71193,-3.71193 0,-2.05004 1.66189,-3.71193 3.71193,-3.71193 2.05004,0 3.71193,1.66189 3.71193,3.71193 z"
         style="fill:#2d5016;fill-opacity:1;stroke:#17280b;stroke-width:1;stroke-miterlimit:4" />
      <path
         style="fill:url(#linearGradient4283);fill-opacity:1;stroke:none"
         d="m 376.49301,202.58546 c 0,1.40217 -1.13669,2.53886 -2.53886,2.53886 -1.40217,0 -2.53886,-1.13669 -2.53886,-2.53886 0,-1.40217 1.13669,-2.53886 2.53886,-2.53886 1.40217,0 2.53886,1.13669 2.53886,2.53886 z"
         id="path3667" />
    </g>
    <flowRoot
       xml:space="preserve"
       id="flowRoot3789"
       style="font-size:40px;font-style:normal;font-weight:normal;fill:#225500;fill-opacity:1;stroke:#225500;font-family:Bitstream Vera Sans"
       transform="matrix(0.5746518,0,0,0.5746518,274.80027,168.49223)"><flowRegion
         id="flowRegion3791"><rect
           id="rect3793"
           width="179.80716"
           height="107.07617"
           x="40.406101"
           y="152.31627"
           style="fill:#225500;stroke:#225500" /></flowRegion><flowPara
         id="flowPara3795"
         style="font-size:40px;font-style:normal;font-variant:normal;font-weight:normal;font-stretch:normal;text-align:start;line-height:125%;writing-mode:lr-tb;text-anchor:start;fill:#225500;stroke:#225500;font-family:Furat;-inkscape-font-specification:Furat">القبلة</flowPara></flowRoot>    <g
       transform="matrix(0.41995146,0,0,0.41995146,311.31653,216.96713)"
       style="font-size:40px;font-style:normal;font-weight:normal;fill:#000000;fill-opacity:1;stroke:#000000;font-family:Bitstream Vera Sans"
       id="flowRoot2855">
      <path
         d="m 199.21319,167.73429 -1.26666,2.35555 -2.8,-1.48889 1.37778,-2.62222 2.08888,1.13333 1.24445,-2.35555 2.82222,1.51111 -1.37778,2.6 -2.08889,-1.13333 m 0.26667,-4.91111 -1.4,2.6 -2.8,-1.48889 1.37778,-2.6 2.82222,1.48889 m -3.77778,20.4 c -0.37039,1.74814 -0.96298,3.59999 -1.77777,5.55555 -0.99262,2.39999 -1.82224,3.59999 -2.48889,3.6 -2.41483,-1e-5 -5.31853,-0.62223 -8.71111,-1.86667 -3.37779,-1.22963 -5.33334,-2.34074 -5.86667,-3.33333 -0.22223,-0.41482 -0.44445,-1.31852 -0.66667,-2.71111 -0.22222,-1.37778 -0.33333,-2.57037 -0.33333,-3.57778 0,-0.78518 0.0741,-1.28888 0.22222,-1.51111 0.35555,-0.5037 0.62963,-1.12592 0.82222,-1.86667 0.19259,-0.74073 0.34074,-1.70369 0.44445,-2.88888 0.25185,0.1926 0.51851,0.72593 0.8,1.6 0.28147,0.85926 0.42222,1.68889 0.42222,2.48888 0,0.50371 -0.0963,1.05927 -0.28889,1.66667 -0.42963,1.42222 -0.64445,2.38519 -0.64444,2.88889 -1e-5,0.59259 0.88147,1.33333 2.64444,2.22222 1.59999,0.8 3.51851,1.51852 5.75556,2.15556 2.25183,0.65184 4.06665,0.97777 5.44444,0.97778 0.26665,-1e-5 0.59998,-0.41482 1,-1.24445 0.47406,-0.96296 0.94072,-2.33333 1.4,-4.11111 -2e-5,-0.78518 -0.23706,-1.59259 -0.71111,-2.42222 -0.16298,-0.2963 -0.67409,-1.03704 -1.53333,-2.22222 l 1.57777,-5.26667 c 0.38517,1.82223 1.08887,3.37778 2.11112,4.66667 0.88886,1.15556 1.87405,1.73333 2.95555,1.73333 0.35553,0 0.6222,-0.2 0.8,-0.6 0.19257,-0.41481 0.28886,-0.91111 0.28889,-1.48889 -3e-5,-0.56296 -0.0741,-1.08147 -0.22222,-1.55556 l 1.17778,-3.46666 1.46666,3.86666 c 0.48886,1.22964 0.97775,2.05186 1.46667,2.46667 0.60738,0.51852 1.52589,0.77778 2.75555,0.77778 -3e-5,-0.42963 -0.16299,-0.96296 -0.48888,-1.6 -0.35559,-0.69629 -0.87411,-1.42222 -1.55556,-2.17778 l 1.04444,-4.82222 c 0.69627,0.82964 1.31849,2.11112 1.86667,3.84444 0.56293,1.73334 0.84441,3.31853 0.84445,4.75556 l 0,3.51111 -2.62223,0 c -0.90373,0 -1.70373,-0.18518 -2.4,-0.55556 -0.4741,-0.23703 -1.13336,-0.8074 -1.97777,-1.71111 -0.35559,0.81482 -0.70373,1.35556 -1.04445,1.62223 -0.5778,0.42963 -1.54076,0.64444 -2.88889,0.64444 l -1.08889,-0.0444"
         style="font-variant:normal;font-stretch:normal;text-align:start;line-height:125%;writing-mode:lr-tb;text-anchor:start;fill:#000000;stroke:#000000;font-family:Furat;-inkscape-font-specification:Furat"
         id="path4350" />
      <path
         d="m 121.27986,159.6454 c -0.44445,2e-5 -1.40741,0.30372 -2.88889,0.91111 l 0,-0.6 7.2,-3.62222 0.33334,0.0889 0,24 c -2e-5,0.96296 0.23702,1.59259 0.71111,1.88888 0.47406,0.2963 1.50369,0.45926 3.08889,0.48889 l 0,0.57778 -11.04445,0 0,-0.57778 c 1.49629,-0.0593 2.5037,-0.28148 3.02222,-0.66666 0.53333,-0.4 0.79999,-1.22963 0.8,-2.48889 l 0,-18.11111 c -1e-5,-1.25924 -0.40741,-1.88887 -1.22222,-1.88889"
         style="font-variant:normal;font-stretch:normal;text-align:start;line-height:125%;writing-mode:lr-tb;text-anchor:start;fill:#000000;stroke:#000000;font-family:Furat;-inkscape-font-specification:Furat"
         id="path4352" />
      <path
         d="m 135.19097,164.28984 c 0.11852,-0.44442 0.20741,-0.79257 0.26667,-1.04444 0.0741,-0.25183 0.22963,-0.68887 0.46667,-1.31111 0.23703,-0.63702 0.47407,-1.16294 0.71111,-1.57778 0.25185,-0.41479 0.59999,-0.89627 1.04444,-1.44445 0.45926,-0.56293 0.94814,-1.00738 1.46667,-1.33333 0.51851,-0.34071 1.15555,-0.6296 1.91111,-0.86667 0.75555,-0.25182 1.57777,-0.37775 2.46667,-0.37777 2.07406,2e-5 3.8222,0.6815 5.24444,2.04444 1.43702,1.36299 2.15554,3.04447 2.15556,5.04445 -2e-5,1.57038 -0.40743,3.14816 -1.22223,4.73333 -0.81483,1.57038 -2.11112,3.28149 -3.88889,5.13333 l -6.73333,7.04445 9.55556,0 c 0.90368,0 1.57776,-0.15556 2.02222,-0.46667 0.45924,-0.31111 1.05924,-1.03703 1.8,-2.17778 l 0.48889,0.2 -2.17778,5.48889 -15.6,0 0,-0.48889 7.11111,-7.55555 c 1.67407,-1.76296 2.95555,-3.54073 3.84445,-5.33334 0.90369,-1.80739 1.35554,-3.49628 1.35555,-5.06666 -1e-5,-1.68887 -0.51853,-3.05183 -1.55555,-4.08889 -1.03705,-1.03702 -2.39261,-1.55553 -4.06667,-1.55556 -1.3926,3e-5 -2.51112,0.3778 -3.35556,1.13334 -0.82963,0.75557 -1.64444,2.11113 -2.44444,4.06666 l -0.86667,-0.2"
         style="font-variant:normal;font-stretch:normal;text-align:start;line-height:125%;writing-mode:lr-tb;text-anchor:start;fill:#000000;stroke:#000000;font-family:Furat;-inkscape-font-specification:Furat"
         id="path4354" />
      <path
         d="m 163.96875,183.93429 c -1.37779,0 -2.61482,-0.31852 -3.71111,-0.95556 -1.08149,-0.65185 -1.94815,-1.46666 -2.6,-2.44444 -0.65186,-0.99259 -1.1926,-2.13333 -1.62222,-3.42223 -0.42963,-1.30369 -0.72593,-2.54073 -0.88889,-3.71111 -0.14815,-1.17036 -0.22223,-2.32591 -0.22222,-3.46666 -1e-5,-2.34073 0.34814,-4.56295 1.04444,-6.66667 0.71111,-2.10368 1.64444,-3.71849 2.8,-4.84444 1.48148,-1.39257 3.26666,-2.08887 5.35556,-2.08889 2.63702,2e-5 4.77776,1.28891 6.42222,3.86666 1.64442,2.56299 2.46665,5.88891 2.46666,9.97778 -1e-5,4.04445 -0.82964,7.34816 -2.48888,9.91111 -1.64446,2.56297 -3.82965,3.84445 -6.55556,3.84445 m 0.0222,-26.55556 c -1.70371,3e-5 -3,1.09632 -3.88889,3.28889 -0.88889,2.19261 -1.33333,5.40742 -1.33333,9.64444 0,8.38519 1.73333,12.57778 5.2,12.57778 3.46665,0 5.19998,-4.2074 5.2,-12.62222 -2e-5,-4.19258 -0.44446,-7.38516 -1.33333,-9.57778 -0.88891,-2.20738 -2.17039,-3.31108 -3.84445,-3.31111"
         style="font-variant:normal;font-stretch:normal;text-align:start;line-height:125%;writing-mode:lr-tb;text-anchor:start;fill:#000000;stroke:#000000;font-family:Furat;-inkscape-font-specification:Furat"
         id="path4356" />
    </g>
    <path
       inkscape:label="#path2857"
       id="glass"
       d="m 513.18027,203.35693 c -11.76709,56.41592 -63.36814,36.79559 -103.23415,6.76915 -39.86601,-30.02644 -83.54211,35.54269 -119.7271,44.15273 -26.38103,2.4385 -53.27707,-2.8966 -53.27707,-50.92188 0,-76.28111 61.83805,-138.119162 138.11916,-138.119162 76.2811,0 138.11916,61.838052 138.11916,138.119162 z"
       style="opacity:0.75939852;fill:url(#linearGradient4335);fill-opacity:1;stroke:none"
       sodipodi:nodetypes="czcssc">
      <desc
         id="desc3785"
         style="fill:url(#linearGradient4335);fill-opacity:1;stroke:url(#linearGradient4319)">Glass</desc>
      <title
         id="title3787"
         style="fill:url(#linearGradient4335);fill-opacity:1;stroke:url(#linearGradient4319)">glass</title>
    </path>
  </g>
</svg>
